<svg id="b" xmlns="http://www.w3.org/2000/svg" viewBox="0 0 738.01 693.99"><g id="c"><path d="M164.73,536.33h-34.05c3.61,4.74,6.09,10.38,6.09,19.4v114.57c0,9.02-2.48,14.66-6.09,19.4h34.05c-3.61-4.74-6.09-10.37-6.09-19.4v-114.57c0-9.02,2.48-14.66,6.09-19.4Z"></path><path d="M299.93,554.6l-38.11,105.33-36.76-105.33c-2.94-8.34-2.71-14.66.45-18.27h-36.31c4.29,4.06,9.02,10.38,13.08,21.43l49.17,131.94h19.62l50.3-131.94c4.28-11.05,8.8-17.37,13.08-21.43h-34.96c3.16,3.61,3.38,9.92.45,18.27h-.01Z"></path><path d="M392.95,536.33h-34.05c3.61,4.74,6.09,10.38,6.09,19.4v114.57c0,9.02-2.48,14.66-6.09,19.4h34.05c-3.61-4.74-6.09-10.37-6.09-19.4v-114.57c0-9.02,2.48-14.66,6.09-19.4Z"></path><path d="M542.56,555.73v99.24l-86.61-118.63h-27.51c3.61,4.74,6.09,10.38,6.09,19.4v114.57c0,9.02-2.48,14.66-6.09,19.4h34.28c-4.06-4.74-6.77-10.37-6.77-19.4v-99.91l87.28,119.31h20.75v-133.97c0-9.02,2.48-14.66,6.09-19.4h-34.28c4.06,4.74,6.77,10.38,6.77,19.4h0Z"></path><path d="M703.26,607.61c4.74,4.74,7.9,10.37,7.9,19.4v40.37c-9.25,5.86-19.4,9.25-34.73,9.25-39.02,0-60.22-28.64-60.22-62.02s21.43-61.8,60.44-61.8c18.72,0,39.69,7.44,51.65,19.17h.23v-23.91c-12.63-8.57-32.48-13.31-51.87-13.31-52.32,0-82.77,34.73-82.77,80.29s30.22,78.94,82.55,78.94c25.94,0,43.3-7.22,55.48-14.43v-52.55c0-9.02,2.48-14.66,6.09-19.4h-34.75Z"></path><path d="M81.72,671.96H27.96v-116.6c0-9.02,3.16-14.66,7.9-19.4H0c3.61,4.74,6.09,10.38,6.09,19.4v114.57c0,9.02-2.48,14.66-6.09,19.4h101.12v-26.39c-4.74,5.41-10.37,9.02-19.4,9.02h0Z"></path><path d="M88.33,307.39v114.57c0,9.02-2.48,14.66-6.09,19.4h35.41c-4.51-4.74-7.44-10.38-7.44-19.4v-50.75h39.14c9.02,0,14.66,2.48,19.4,6.09v-29.32c-4.74,3.61-10.37,6.09-19.4,6.09h-39.14v-48.71h55.2c9.02,0,14.66,3.16,19.4,7.89v-25.26h-102.57c3.61,4.74,6.09,10.38,6.09,19.4h0Z"></path><path d="M628.68,421.96c0,9.02-2.48,14.66-6.09,19.4h33.15c-3.61-4.74-6.09-10.38-6.09-19.4v-114.57c0-9.02,2.48-14.66,6.09-19.4h-32.93l-51.42,118.63-50.97-118.63h-34.28c3.61,4.74,6.09,10.38,6.09,19.4v114.57c0,9.02-2.48,14.66-6.09,19.4h33.15c-3.61-4.74-6.09-10.38-6.09-19.4v-103.07l53,122.47h9.02l53.45-122.69v103.3h0Z"></path><path d="M208.02,441.35h101.8v-24.58c-4.74,4.28-10.37,7.22-19.4,7.22h-54.43v-52.77h41.49c9.02,0,14.66,2.48,19.4,6.09v-29.32c-4.74,3.61-10.37,6.09-19.4,6.09h-41.49v-48.72h51.73c9.02,0,14.66,3.16,19.4,7.89v-25.26h-99.09c3.61,4.74,6.09,10.37,6.09,19.4v114.57c0,9.02-2.48,14.66-6.09,19.39h-.01Z"></path><path d="M469.77,441.59v-.23c-5.2-.68-11.76-2.26-22.37-16.05l-40.32-52.96c19.59-5.28,34.16-20.64,34.16-44,0-26.83-21.19-40.36-50.51-40.36h-51.43c3.61,4.73,6.1,10.37,6.1,19.38v114.58c0,9.02-2.49,14.66-6.1,19.4h33.84c-3.61-4.74-6.09-10.38-6.09-19.4v-44.21h20.69l33.9,49.83c10.61,15.6,18.74,16.94,48.13,14.02h0ZM367.05,362.19v-57.06h21.43c19.85,0,30.68,11.95,30.68,27.28s-11.28,29.78-30.91,29.78h-21.2Z"></path><path d="M322.58,159.37c15.54,15.05,35.04,25.5,56.32,29.48,2.48.46,4.92.82,7.27,1.03,22.3,1.98,71.82,5.12,71.82,5.12,0,0-.18-3.2-.74-5.3-4.28-16.38-17.49-26.72-31.03-35.82-13.39-8.99-64.66-30.04-93.89-40.84,29.23-4.74,70.84,25.3,120.81,18.28-3.61-24.6-24.96-54.11-31.37-76.63-15.37,2.8-59.78,26.38-96.11,31.71,26.39-7.55,88.11-36.67,74.28-86.4-55.57,21.92-94.14,51.05-107.17,83.54-9.3,0-18.92,3.54-26.77,10.24l9.27,7.45c19.46,16.24,29.31,40.7,47.32,58.15h-.01Z"></path></g></svg>